<svg width="119" height="32" viewBox="0 0 119 32" fill="none" xmlns="http://www.w3.org/2000/svg">
<path d="M76.9237 15.2828C76.8302 15.9835 76.7402 16.6841 76.6534 17.3848C76.5733 18.0788 76.5233 18.7294 76.5033 19.3366C76.5033 19.5968 76.5233 19.8137 76.5633 19.9872C76.6034 20.1607 76.6601 20.2975 76.7335 20.3976C76.8136 20.4977 76.907 20.5711 77.0137 20.6178C77.1205 20.6578 77.2406 20.6778 77.3741 20.6778C77.5876 20.6778 77.8212 20.6478 78.0747 20.5878C78.3283 20.521 78.5819 20.4376 78.8354 20.3375C78.9155 20.3042 78.9822 20.2808 79.0356 20.2675C79.0957 20.2474 79.1457 20.2374 79.1858 20.2374C79.2525 20.2374 79.2959 20.2675 79.3159 20.3275C79.3426 20.3876 79.3659 20.4943 79.3859 20.6478C79.4126 20.7946 79.4493 20.9948 79.4961 21.2484C79.5428 21.5019 79.6195 21.8222 79.7263 22.2093C79.7329 22.2426 79.7363 22.2727 79.7363 22.2993C79.7429 22.3194 79.7463 22.3394 79.7463 22.3594C79.7463 22.4528 79.7096 22.5196 79.6362 22.5596C79.5695 22.5996 79.456 22.6463 79.2959 22.6997C79.0223 22.7931 78.732 22.8899 78.4251 22.99C78.1248 23.0834 77.8245 23.1702 77.5242 23.2502C77.2306 23.3303 76.947 23.3937 76.6734 23.4404C76.3998 23.4938 76.1596 23.5205 75.9528 23.5205C74.8384 23.5205 74.0243 23.2436 73.5105 22.6897C73.0033 22.1359 72.7498 21.2917 72.7498 20.1574C72.7498 19.9638 72.7565 19.767 72.7698 19.5668C72.7831 19.3599 72.7998 19.1464 72.8198 18.9262C72.8866 18.2589 72.9433 17.6283 72.99 17.0345C73.0434 16.4339 73.0968 15.86 73.1502 15.3129H72.0992C71.7388 15.3129 71.4786 15.2995 71.3184 15.2728C71.1583 15.2395 71.0782 15.1761 71.0782 15.0826C71.0782 15.0559 71.1116 14.9859 71.1783 14.8724C71.245 14.7523 71.3285 14.6122 71.4286 14.4521C71.5353 14.2852 71.6488 14.1084 71.7689 13.9216C71.889 13.7347 72.0024 13.5612 72.1092 13.4011C72.2226 13.2343 72.3194 13.0908 72.3995 12.9707C72.4795 12.8506 72.5296 12.7772 72.5496 12.7505H73.2603C73.3203 12.2433 73.367 11.8196 73.4004 11.4793C73.4404 11.1323 73.4704 10.8454 73.4905 10.6185C73.5172 10.3916 73.5405 10.2181 73.5605 10.098C73.5806 9.97122 73.6006 9.8778 73.6206 9.81774C73.6473 9.75769 73.6773 9.72099 73.7107 9.70764C73.7507 9.68762 73.8008 9.67094 73.8608 9.6576C74.1611 9.59754 74.4514 9.54416 74.7316 9.49745C75.0119 9.44406 75.2921 9.39068 75.5724 9.3373C75.8527 9.28391 76.1363 9.22386 76.4232 9.15713C76.7168 9.08373 77.0204 9.00032 77.334 8.9069C77.3541 8.9069 77.3674 8.9069 77.3741 8.9069C77.3808 8.90022 77.3941 8.89689 77.4141 8.89689C77.4942 8.89689 77.5342 8.92358 77.5342 8.97696V8.99698C77.5009 9.36399 77.4475 9.87446 77.3741 10.5284C77.3074 11.1823 77.2306 11.923 77.1439 12.7505H79.8264C79.8797 12.7505 79.9298 12.7705 79.9765 12.8105C80.0299 12.8439 80.0566 12.9039 80.0566 12.9907C80.0566 13.0241 80.0165 13.1442 79.9365 13.351C79.8564 13.5579 79.7429 13.8281 79.5961 14.1618L79.2358 14.9725C79.1891 15.0726 79.1391 15.146 79.0857 15.1927C79.039 15.2395 78.9389 15.2695 78.7854 15.2828H76.9237ZM90.9967 20.9881C90.9901 21.0148 90.9867 21.0415 90.9867 21.0682C90.9867 21.0882 90.9867 21.1082 90.9867 21.1283C90.9867 21.2951 91.0134 21.4352 91.0668 21.5487C91.1202 21.6554 91.1769 21.7455 91.237 21.8189C91.3037 21.8856 91.3638 21.9424 91.4171 21.9891C91.4705 22.0291 91.4972 22.0658 91.4972 22.0992C91.4972 22.1926 91.3971 22.2793 91.1969 22.3594L88.5044 23.5105C88.4978 23.5171 88.4744 23.5205 88.4344 23.5205C88.381 23.5205 88.3276 23.4738 88.2742 23.3804C88.2208 23.2869 88.1674 23.1668 88.1141 23.02C88.0674 22.8799 88.0206 22.7297 87.9739 22.5696C87.9339 22.4028 87.8972 22.2493 87.8638 22.1092C87.4434 22.5963 86.9897 22.9533 86.5026 23.1802C86.0154 23.407 85.5317 23.5205 85.0512 23.5205C84.4907 23.5205 83.9435 23.397 83.4097 23.1501C82.8759 22.9032 82.4021 22.5529 81.9884 22.0992C81.5747 21.6387 81.241 21.0849 80.9874 20.4376C80.7405 19.7903 80.6171 19.063 80.6171 18.2556C80.6171 17.3014 80.7539 16.4306 81.0275 15.6432C81.3077 14.8558 81.6848 14.1785 82.1585 13.6113C82.6323 13.0441 83.1828 12.607 83.8101 12.3001C84.444 11.9864 85.1146 11.8296 85.8219 11.8296C86.3224 11.8296 86.7962 11.933 87.2433 12.1399C87.6903 12.3401 88.1141 12.6003 88.5144 12.9206C88.5545 12.7204 88.5778 12.5603 88.5845 12.4402C88.5912 12.3201 88.6045 12.2267 88.6245 12.1599C88.6512 12.0932 88.6979 12.0498 88.7647 12.0298C88.8314 12.0031 88.9415 11.9831 89.095 11.9697C89.5754 11.903 90.0525 11.843 90.5263 11.7896C91.0068 11.7295 91.5072 11.6861 92.0277 11.6595L90.9967 20.9881ZM88.004 17.2146C88.0707 16.8343 88.1141 16.4773 88.1341 16.1436C88.1608 15.8033 88.1808 15.493 88.1941 15.2128C88.0874 15.1327 87.9706 15.0493 87.8438 14.9625C87.7237 14.8758 87.5902 14.7957 87.4434 14.7223C87.3033 14.6422 87.1532 14.5788 86.993 14.5321C86.8395 14.4854 86.6761 14.4621 86.5026 14.4621C86.1422 14.4621 85.8386 14.5788 85.5917 14.8124C85.3515 15.0459 85.1546 15.3329 85.0012 15.6732C84.8544 16.0135 84.7476 16.3738 84.6809 16.7542C84.6208 17.1345 84.5908 17.4715 84.5908 17.7651C84.5908 18.8194 84.7276 19.5935 85.0012 20.0873C85.2814 20.5744 85.6685 20.818 86.1622 20.818C86.3624 20.818 86.586 20.7613 86.8329 20.6478C87.0798 20.5344 87.33 20.3776 87.5836 20.1774L88.004 17.2146ZM98.6639 15.2828C98.5705 15.9835 98.4804 16.6841 98.3936 17.3848C98.3135 18.0788 98.2635 18.7294 98.2435 19.3366C98.2435 19.5968 98.2635 19.8137 98.3035 19.9872C98.3436 20.1607 98.4003 20.2975 98.4737 20.3976C98.5538 20.4977 98.6472 20.5711 98.754 20.6178C98.8607 20.6578 98.9808 20.6778 99.1143 20.6778C99.3278 20.6778 99.5614 20.6478 99.8149 20.5878C100.069 20.521 100.322 20.4376 100.576 20.3375C100.656 20.3042 100.722 20.2808 100.776 20.2675C100.836 20.2474 100.886 20.2374 100.926 20.2374C100.993 20.2374 101.036 20.2675 101.056 20.3275C101.083 20.3876 101.106 20.4943 101.126 20.6478C101.153 20.7946 101.19 20.9948 101.236 21.2484C101.283 21.5019 101.36 21.8222 101.466 22.2093C101.473 22.2426 101.476 22.2727 101.476 22.2993C101.483 22.3194 101.486 22.3394 101.486 22.3594C101.486 22.4528 101.45 22.5196 101.376 22.5596C101.31 22.5996 101.196 22.6463 101.036 22.6997C100.762 22.7931 100.472 22.8899 100.165 22.99C99.865 23.0834 99.5647 23.1702 99.2644 23.2502C98.9708 23.3303 98.6872 23.3937 98.4136 23.4404C98.1401 23.4938 97.8998 23.5205 97.693 23.5205C96.5786 23.5205 95.7645 23.2436 95.2507 22.6897C94.7436 22.1359 94.49 21.2917 94.49 20.1574C94.49 19.9638 94.4967 19.767 94.51 19.5668C94.5234 19.3599 94.54 19.1464 94.5601 18.9262C94.6268 18.2589 94.6835 17.6283 94.7302 17.0345C94.7836 16.4339 94.837 15.86 94.8904 15.3129H93.8394C93.4791 15.3129 93.2188 15.2995 93.0587 15.2728C92.8985 15.2395 92.8184 15.1761 92.8184 15.0826C92.8184 15.0559 92.8518 14.9859 92.9185 14.8724C92.9853 14.7523 93.0687 14.6122 93.1688 14.4521C93.2755 14.2852 93.389 14.1084 93.5091 13.9216C93.6292 13.7347 93.7426 13.5612 93.8494 13.4011C93.9628 13.2343 94.0596 13.0908 94.1397 12.9707C94.2197 12.8506 94.2698 12.7772 94.2898 12.7505H95.0005C95.0605 12.2433 95.1072 11.8196 95.1406 11.4793C95.1806 11.1323 95.2107 10.8454 95.2307 10.6185C95.2574 10.3916 95.2807 10.2181 95.3007 10.098C95.3208 9.97122 95.3408 9.8778 95.3608 9.81774C95.3875 9.75769 95.4175 9.72099 95.4509 9.70764C95.4909 9.68762 95.541 9.67094 95.601 9.6576C95.9013 9.59754 96.1916 9.54416 96.4718 9.49745C96.7521 9.44406 97.0324 9.39068 97.3126 9.3373C97.5929 9.28391 97.8765 9.22386 98.1634 9.15713C98.457 9.08373 98.7606 9.00032 99.0743 8.9069C99.0943 8.9069 99.1076 8.9069 99.1143 8.9069C99.121 8.90022 99.1343 8.89689 99.1543 8.89689C99.2344 8.89689 99.2744 8.92358 99.2744 8.97696V8.99698C99.2411 9.36399 99.1877 9.87446 99.1143 10.5284C99.0476 11.1823 98.9708 11.923 98.8841 12.7505H101.567C101.62 12.7505 101.67 12.7705 101.717 12.8105C101.77 12.8439 101.797 12.9039 101.797 12.9907C101.797 13.0241 101.757 13.1442 101.677 13.351C101.597 13.5579 101.483 13.8281 101.336 14.1618L100.976 14.9725C100.929 15.0726 100.879 15.146 100.826 15.1927C100.779 15.2395 100.679 15.2695 100.526 15.2828H98.6639ZM102.668 20.2374C102.668 20.2308 102.664 20.2274 102.658 20.2274C102.658 20.2207 102.658 20.2141 102.658 20.2074C102.658 20.1207 102.704 20.0773 102.798 20.0773C102.858 20.0773 102.911 20.1006 102.958 20.1473C103.225 20.4009 103.528 20.6078 103.869 20.7679C104.216 20.9281 104.589 21.0081 104.99 21.0081C105.097 21.0081 105.22 20.9981 105.36 20.9781C105.5 20.9514 105.634 20.9114 105.76 20.858C105.887 20.8046 105.991 20.7346 106.071 20.6478C106.158 20.5544 106.201 20.441 106.201 20.3075C106.201 20.1607 106.164 20.0272 106.091 19.9071C106.017 19.7803 105.921 19.6769 105.801 19.5968C105.734 19.5501 105.617 19.4701 105.45 19.3566C105.283 19.2365 105.103 19.1097 104.91 18.9763C104.723 18.8428 104.543 18.716 104.369 18.5959C104.202 18.4758 104.086 18.389 104.019 18.3357C103.719 18.1088 103.478 17.8786 103.298 17.645C103.125 17.4115 102.991 17.1712 102.898 16.9244C102.804 16.6708 102.744 16.4072 102.718 16.1336C102.691 15.86 102.678 15.5698 102.678 15.2628C102.678 14.7957 102.801 14.3553 103.048 13.9416C103.295 13.5279 103.618 13.1642 104.019 12.8506C104.426 12.5369 104.886 12.29 105.4 12.1099C105.914 11.923 106.438 11.8296 106.972 11.8296C107.412 11.8296 107.846 11.8963 108.273 12.0298C108.7 12.1633 109.097 12.3901 109.464 12.7104C109.497 13.1308 109.521 13.5445 109.534 13.9516C109.547 14.3586 109.567 14.7857 109.594 15.2328C109.594 15.3195 109.574 15.3796 109.534 15.4129C109.494 15.4396 109.447 15.453 109.394 15.453C109.347 15.453 109.307 15.4363 109.274 15.4029C109.12 15.2561 108.963 15.1127 108.803 14.9725C108.643 14.8257 108.473 14.6989 108.293 14.5922C108.119 14.4787 107.932 14.3887 107.732 14.3219C107.532 14.2485 107.319 14.2118 107.092 14.2118C106.952 14.2118 106.811 14.2252 106.671 14.2519C106.531 14.2719 106.404 14.3153 106.291 14.382C106.178 14.442 106.084 14.5255 106.011 14.6322C105.944 14.739 105.911 14.8758 105.911 15.0426C105.911 15.2361 105.934 15.4029 105.981 15.5431C106.027 15.6832 106.137 15.82 106.311 15.9534L108.173 17.2146C108.513 17.4482 108.787 17.6784 108.993 17.9053C109.207 18.1255 109.374 18.3457 109.494 18.5659C109.614 18.7861 109.694 19.0063 109.734 19.2265C109.781 19.44 109.804 19.6536 109.804 19.8671C109.804 20.4676 109.664 20.9981 109.384 21.4586C109.11 21.9123 108.753 22.2927 108.313 22.5996C107.872 22.8999 107.372 23.1268 106.811 23.2803C106.258 23.4404 105.7 23.5205 105.14 23.5205C104.713 23.5205 104.299 23.4738 103.899 23.3804C103.505 23.2936 103.138 23.1568 102.798 22.97L102.668 20.2374ZM111.296 20.2374C111.296 20.2308 111.292 20.2274 111.286 20.2274C111.286 20.2207 111.286 20.2141 111.286 20.2074C111.286 20.1207 111.332 20.0773 111.426 20.0773C111.486 20.0773 111.539 20.1006 111.586 20.1473C111.853 20.4009 112.156 20.6078 112.497 20.7679C112.844 20.9281 113.217 21.0081 113.618 21.0081C113.725 21.0081 113.848 20.9981 113.988 20.9781C114.128 20.9514 114.262 20.9114 114.388 20.858C114.515 20.8046 114.619 20.7346 114.699 20.6478C114.786 20.5544 114.829 20.441 114.829 20.3075C114.829 20.1607 114.792 20.0272 114.719 19.9071C114.645 19.7803 114.549 19.6769 114.429 19.5968C114.362 19.5501 114.245 19.4701 114.078 19.3566C113.911 19.2365 113.731 19.1097 113.538 18.9763C113.351 18.8428 113.171 18.716 112.997 18.5959C112.83 18.4758 112.714 18.389 112.647 18.3357C112.347 18.1088 112.106 17.8786 111.926 17.645C111.753 17.4115 111.619 17.1712 111.526 16.9244C111.432 16.6708 111.372 16.4072 111.346 16.1336C111.319 15.86 111.306 15.5698 111.306 15.2628C111.306 14.7957 111.429 14.3553 111.676 13.9416C111.923 13.5279 112.246 13.1642 112.647 12.8506C113.054 12.5369 113.514 12.29 114.028 12.1099C114.542 11.923 115.066 11.8296 115.6 11.8296C116.04 11.8296 116.474 11.8963 116.901 12.0298C117.328 12.1633 117.725 12.3901 118.092 12.7104C118.125 13.1308 118.149 13.5445 118.162 13.9516C118.175 14.3586 118.195 14.7857 118.222 15.2328C118.222 15.3195 118.202 15.3796 118.162 15.4129C118.122 15.4396 118.075 15.453 118.022 15.453C117.975 15.453 117.935 15.4363 117.902 15.4029C117.748 15.2561 117.591 15.1127 117.431 14.9725C117.271 14.8257 117.101 14.6989 116.921 14.5922C116.747 14.4787 116.561 14.3887 116.36 14.3219C116.16 14.2485 115.947 14.2118 115.72 14.2118C115.58 14.2118 115.439 14.2252 115.299 14.2519C115.159 14.2719 115.032 14.3153 114.919 14.382C114.806 14.442 114.712 14.5255 114.639 14.6322C114.572 14.739 114.539 14.8758 114.539 15.0426C114.539 15.2361 114.562 15.4029 114.609 15.5431C114.655 15.6832 114.766 15.82 114.939 15.9534L116.801 17.2146C117.141 17.4482 117.415 17.6784 117.621 17.9053C117.835 18.1255 118.002 18.3457 118.122 18.5659C118.242 18.7861 118.322 19.0063 118.362 19.2265C118.409 19.44 118.432 19.6536 118.432 19.8671C118.432 20.4676 118.292 20.9981 118.012 21.4586C117.738 21.9123 117.381 22.2927 116.941 22.5996C116.5 22.8999 116 23.1268 115.439 23.2803C114.886 23.4404 114.328 23.5205 113.768 23.5205C113.341 23.5205 112.927 23.4738 112.527 23.3804C112.133 23.2936 111.766 23.1568 111.426 22.97L111.296 20.2374Z" fill="#D2D2D2"/>
<path d="M61.0764 19.2765C61.0764 19.2699 61.073 19.2632 61.0663 19.2565C61.0663 19.2498 61.0663 19.2432 61.0663 19.2365C61.0663 19.1231 61.1264 19.0663 61.2465 19.0663C61.3066 19.0663 61.3733 19.0964 61.4467 19.1564C61.807 19.4967 62.2074 19.767 62.6478 19.9672C63.0882 20.1674 63.5687 20.2675 64.0892 20.2675C64.2293 20.2675 64.3894 20.2541 64.5696 20.2274C64.7498 20.1941 64.9199 20.144 65.0801 20.0773C65.2402 20.0039 65.3737 19.9105 65.4804 19.797C65.5939 19.6836 65.6506 19.5401 65.6506 19.3666C65.6506 19.1731 65.6039 18.9996 65.5105 18.8461C65.4171 18.6927 65.2936 18.5625 65.1401 18.4558C65.0801 18.4157 64.99 18.349 64.8699 18.2556C64.7498 18.1622 64.613 18.0554 64.4595 17.9353C64.306 17.8152 64.1459 17.6884 63.9791 17.5549C63.8122 17.4148 63.6521 17.2847 63.4986 17.1646C63.3518 17.0378 63.2183 16.9244 63.0982 16.8243C62.9781 16.7242 62.888 16.6474 62.828 16.594C62.4343 16.3004 62.1207 16.0035 61.8871 15.7032C61.6602 15.4029 61.4867 15.0893 61.3666 14.7623C61.2465 14.4354 61.1698 14.0984 61.1364 13.7514C61.103 13.3977 61.0864 13.0241 61.0864 12.6304C61.0864 12.0431 61.2265 11.486 61.5068 10.9588C61.787 10.4316 62.1807 9.97456 62.6879 9.58753C63.2017 9.19383 63.8156 8.88354 64.5296 8.65667C65.2436 8.42311 66.0376 8.30634 66.9118 8.30634C67.0185 8.30634 67.1787 8.31969 67.3922 8.34638C67.6058 8.3664 67.8393 8.4031 68.0929 8.45648C68.3531 8.50986 68.6167 8.58326 68.8836 8.67668C69.1505 8.7701 69.3941 8.89022 69.6143 9.03702C69.6877 9.0904 69.7444 9.14378 69.7844 9.19717C69.8312 9.25055 69.8612 9.33396 69.8745 9.4474C69.9079 9.9879 69.9346 10.5217 69.9546 11.0489C69.9746 11.5694 70.0013 12.1232 70.0347 12.7104C70.0347 12.8239 70.0113 12.9006 69.9646 12.9406C69.9179 12.974 69.8578 12.9907 69.7844 12.9907C69.711 12.9907 69.6543 12.9707 69.6143 12.9306C69.4208 12.7371 69.2206 12.5469 69.0137 12.3601C68.8069 12.1733 68.59 12.0098 68.3631 11.8697C68.1362 11.7228 67.8927 11.6061 67.6324 11.5193C67.3789 11.4326 67.102 11.3892 66.8017 11.3892C66.6215 11.3892 66.4413 11.4059 66.2612 11.4393C66.081 11.4659 65.9175 11.5193 65.7707 11.5994C65.6239 11.6795 65.5038 11.7896 65.4104 11.9297C65.3236 12.0698 65.2803 12.2467 65.2803 12.4602C65.2803 12.6871 65.307 12.8839 65.3603 13.0508C65.4204 13.2176 65.5639 13.3744 65.7907 13.5212L68.193 15.1527C68.6334 15.4663 68.9904 15.78 69.264 16.0936C69.5376 16.4005 69.7511 16.7075 69.9046 17.0144C70.058 17.3214 70.1615 17.625 70.2148 17.9253C70.2749 18.2189 70.3049 18.5092 70.3049 18.7961C70.3049 19.2632 70.2282 19.7036 70.0747 20.1173C69.9212 20.531 69.711 20.9147 69.4441 21.2684C69.1772 21.6154 68.8636 21.929 68.5033 22.2093C68.1496 22.4829 67.7692 22.7197 67.3622 22.9199C66.9552 23.1134 66.5314 23.2602 66.091 23.3603C65.6573 23.4671 65.2302 23.5205 64.8098 23.5205C64.4829 23.5205 64.1592 23.5138 63.8389 23.5005C63.5253 23.4938 63.2183 23.4671 62.9181 23.4204C62.6178 23.3804 62.3275 23.3136 62.0473 23.2202C61.767 23.1335 61.5001 23.01 61.2465 22.8499L61.0764 19.2765Z" fill="#CF3434"/>
<path d="M24.9579 22.1192C24.9245 22.2059 24.8911 22.2893 24.8578 22.3694C24.8311 22.4495 24.7944 22.5229 24.7477 22.5896C24.701 22.6563 24.6409 22.7164 24.5675 22.7698C24.5008 22.8232 24.414 22.8665 24.3073 22.8999C23.8869 23.0334 23.4698 23.1468 23.0561 23.2402C22.6424 23.3403 22.2253 23.4604 21.8049 23.6006C21.7249 23.6272 21.6548 23.6473 21.5947 23.6606C21.5347 23.674 21.478 23.6806 21.4246 23.6806C21.3045 23.6806 21.2177 23.6506 21.1643 23.5905C21.111 23.5305 21.0709 23.4538 21.0442 23.3603L17.6211 9.74768C17.5677 9.57418 17.541 9.43072 17.541 9.31728C17.541 9.17048 17.5877 9.05036 17.6811 8.95694C17.7745 8.85685 17.9247 8.77678 18.1315 8.71672C18.3451 8.64999 18.6153 8.58994 18.9423 8.53655C19.2759 8.48317 19.683 8.42311 20.1634 8.35639C20.397 8.32302 20.5938 8.29967 20.754 8.28632C20.9141 8.2663 21.0509 8.25629 21.1643 8.25629C21.3579 8.25629 21.4846 8.28966 21.5447 8.35639C21.6114 8.41644 21.6715 8.5132 21.7249 8.64666L23.6366 16.9143L26.3291 9.31728C26.3692 9.21051 26.4026 9.12377 26.4292 9.05704C26.4626 8.99031 26.5193 8.93359 26.5994 8.88688C26.6861 8.8335 26.8129 8.78345 26.9798 8.73674C27.1532 8.68336 27.4001 8.6233 27.7204 8.55657C28.2209 8.44981 28.6346 8.37307 28.9616 8.32636C29.2886 8.27965 29.5521 8.25629 29.7523 8.25629C30.0059 8.25629 30.1694 8.28632 30.2428 8.34638C30.3229 8.40643 30.3629 8.49318 30.3629 8.60662C30.3696 8.65333 30.3596 8.70338 30.3329 8.75676C30.3129 8.80347 30.2895 8.86352 30.2628 8.93693L24.9579 22.1192ZM30.5331 18.7561C30.6198 17.8419 30.7066 16.9377 30.7933 16.0435C30.88 15.1494 30.9568 14.2318 31.0235 13.291C31.0369 13.0708 31.0569 12.9206 31.0836 12.8406C31.1169 12.7538 31.1937 12.6971 31.3138 12.6704C31.881 12.557 32.4749 12.4402 33.0954 12.3201C33.716 12.1933 34.3166 12.0331 34.8971 11.8396C34.9171 11.833 34.9472 11.8296 34.9872 11.8296C35.0606 11.8296 35.0973 11.8563 35.0973 11.9097L34.1965 21.6588C34.1764 21.879 34.1531 22.0324 34.1264 22.1192C34.0997 22.1993 34.0263 22.2526 33.9062 22.2793C33.339 22.4528 32.7651 22.6463 32.1846 22.8599C31.6041 23.0734 30.9901 23.2903 30.3429 23.5105C30.3229 23.5171 30.2928 23.5205 30.2528 23.5205C30.1794 23.5205 30.1427 23.4871 30.1427 23.4204C30.1427 23.4137 30.1494 23.3236 30.1627 23.1501C30.1761 22.9766 30.1927 22.7531 30.2128 22.4795C30.2395 22.2059 30.2661 21.899 30.2928 21.5587C30.3195 21.2183 30.3462 20.878 30.3729 20.5377C30.4063 20.1974 30.4363 19.8704 30.463 19.5568C30.4897 19.2432 30.513 18.9763 30.5331 18.7561ZM31.2838 10.7686C31.3038 10.4817 31.3171 10.2615 31.3238 10.108C31.3371 9.95454 31.3471 9.8411 31.3538 9.7677C31.3605 9.68762 31.3638 9.63758 31.3638 9.61756C31.3638 9.59754 31.3638 9.58419 31.3638 9.57752C31.3705 9.56418 31.3738 9.54416 31.3738 9.51747C31.3805 9.4841 31.3872 9.42071 31.3939 9.32729C31.4005 9.2272 31.4105 9.08373 31.4239 8.89689C31.4372 8.71005 31.4573 8.45314 31.4839 8.12617C31.4973 7.90597 31.5173 7.75583 31.544 7.67575C31.5774 7.58901 31.6541 7.53229 31.7742 7.5056C32.3414 7.39216 32.9353 7.27538 33.5559 7.15527C34.1764 7.02848 34.777 6.86834 35.3575 6.67482C35.3776 6.66815 35.4076 6.66481 35.4476 6.66481C35.4676 6.70485 35.4943 6.73154 35.5277 6.74489L35.5577 6.76491L35.3375 9.50746C35.3175 9.72766 35.2908 9.88114 35.2574 9.96788C35.2308 10.0546 35.1607 10.108 35.0473 10.128C34.4801 10.2348 33.9062 10.3516 33.3257 10.4784C32.7451 10.6051 32.1312 10.7319 31.4839 10.8587C31.4639 10.8654 31.4339 10.8687 31.3939 10.8687C31.3205 10.8687 31.2838 10.8354 31.2838 10.7686ZM40.6224 19.737C40.6892 19.8704 40.7826 20.0072 40.9027 20.1473C41.0295 20.2808 41.173 20.4043 41.3331 20.5177C41.4999 20.6311 41.6801 20.7246 41.8736 20.798C42.0671 20.8647 42.2673 20.898 42.4742 20.898C42.7611 20.898 43.0313 20.7879 43.2849 20.5677C43.5385 20.3409 43.7587 20.0406 43.9455 19.6669C44.139 19.2865 44.2892 18.8561 44.3959 18.3757C44.5027 17.8886 44.5561 17.3848 44.5561 16.8643C44.5561 16.544 44.5261 16.2404 44.466 15.9534C44.4126 15.6665 44.3259 15.4163 44.2058 15.2028C44.0857 14.9892 43.9288 14.8191 43.7353 14.6923C43.5485 14.5655 43.3216 14.5021 43.0547 14.5021C42.621 14.5021 42.2239 14.6289 41.8636 14.8825C41.5033 15.136 41.1996 15.4597 40.9527 15.8534L40.6224 19.737ZM36.899 23.4905C36.8056 23.5105 36.7322 23.5205 36.6788 23.5205C36.4652 23.5205 36.3585 23.3937 36.3585 23.1401C36.3585 23.1068 36.3585 23.0734 36.3585 23.04C36.3651 23.0067 36.3718 22.97 36.3785 22.9299L37.5396 8.76677C37.5396 8.74675 37.5396 8.72673 37.5396 8.70671C37.5462 8.68669 37.5496 8.67001 37.5496 8.65667C37.5496 8.62997 37.5462 8.60662 37.5396 8.5866C37.5396 8.56658 37.5396 8.5499 37.5396 8.53655C37.5396 8.4765 37.5596 8.42979 37.5996 8.39642C37.6463 8.35639 37.7598 8.31301 37.9399 8.2663L40.7526 7.59568C40.826 7.58233 40.9227 7.55231 41.0428 7.5056C41.1629 7.45888 41.2797 7.43553 41.3932 7.43553C41.4799 7.43553 41.56 7.45555 41.6334 7.49559C41.7135 7.53562 41.7535 7.61236 41.7535 7.7258C41.7535 7.73915 41.7502 7.75249 41.7435 7.76584C41.7435 7.77918 41.7435 7.79253 41.7435 7.80587C41.7368 7.83924 41.7201 7.98604 41.6934 8.24628C41.6667 8.50653 41.6367 8.82349 41.6034 9.19717C41.57 9.56418 41.5333 9.96121 41.4932 10.3883C41.4532 10.8087 41.4165 11.2057 41.3831 11.5794C41.3498 11.9464 41.3198 12.26 41.2931 12.5203C41.2664 12.7805 41.2497 12.9273 41.243 12.9607C41.7301 12.6404 42.2339 12.3735 42.7544 12.1599C43.2749 11.9397 43.7954 11.8296 44.3159 11.8296C45.0032 11.8296 45.5971 11.9731 46.0975 12.26C46.598 12.5403 47.0117 12.9173 47.3387 13.3911C47.6657 13.8582 47.9059 14.3987 48.0594 15.0126C48.2195 15.6265 48.2996 16.2604 48.2996 16.9143C48.2996 17.4415 48.2495 17.972 48.1494 18.5058C48.056 19.033 47.9159 19.5401 47.729 20.0272C47.5489 20.5144 47.3187 20.9714 47.0384 21.3985C46.7648 21.8256 46.4479 22.1959 46.0875 22.5095C45.7339 22.8232 45.3368 23.0701 44.8964 23.2502C44.456 23.4304 43.9789 23.5205 43.4651 23.5205C42.8445 23.5205 42.2773 23.3837 41.7635 23.1101C41.2497 22.8365 40.7726 22.4829 40.3322 22.0491C40.3188 22.2093 40.3088 22.336 40.3021 22.4295C40.2955 22.5229 40.2721 22.5963 40.2321 22.6497C40.1987 22.6964 40.1453 22.7364 40.0719 22.7698C39.9985 22.7965 39.8884 22.8265 39.7416 22.8599C39.6682 22.8799 39.5381 22.9133 39.3513 22.96C39.1711 23 38.9509 23.0467 38.6906 23.1001C38.4371 23.1601 38.1535 23.2235 37.8399 23.2903C37.5329 23.357 37.2193 23.4237 36.899 23.4905ZM55.5763 11.8296C56.2103 11.8296 56.7841 11.9497 57.2979 12.19C57.8184 12.4235 58.2622 12.7305 58.6292 13.1108C59.0029 13.4845 59.2898 13.9049 59.49 14.372C59.6902 14.8391 59.7903 15.3062 59.7903 15.7733C59.7903 16.187 59.6635 16.6041 59.4099 17.0244C59.1563 17.4382 58.7993 17.8118 58.3389 18.1455C57.8852 18.4791 57.338 18.7494 56.6974 18.9562C56.0568 19.1631 55.3528 19.2665 54.5854 19.2665C54.185 19.2665 53.7647 19.2265 53.3242 19.1464C53.3509 19.4334 53.4344 19.6802 53.5745 19.8871C53.7146 20.094 53.8914 20.2641 54.105 20.3976C54.3185 20.531 54.5587 20.6311 54.8256 20.6979C55.0992 20.7579 55.3795 20.7879 55.6664 20.7879C55.9867 20.7879 56.2937 20.7613 56.5873 20.7079C56.8876 20.6478 57.1745 20.5711 57.4481 20.4777C57.7217 20.3842 57.9852 20.2808 58.2388 20.1674C58.4924 20.0539 58.7326 19.9405 58.9595 19.8271C59.0195 19.8137 59.0696 19.8037 59.1096 19.797C59.1563 19.7837 59.1997 19.777 59.2397 19.777C59.2397 19.777 59.2364 19.8304 59.2297 19.9372C59.2297 20.0439 59.2297 20.1941 59.2297 20.3876C59.2297 20.5811 59.2264 20.8146 59.2197 21.0882C59.2197 21.3618 59.2164 21.6654 59.2097 21.9991C59.2297 22.0324 59.2431 22.0658 59.2498 22.0992C59.2564 22.1325 59.2598 22.1592 59.2598 22.1792C59.2598 22.2593 59.1864 22.3461 59.0396 22.4395C58.8928 22.5329 58.6992 22.6297 58.459 22.7297C58.2255 22.8298 57.9552 22.9266 57.6483 23.02C57.348 23.1134 57.041 23.1968 56.7274 23.2703C56.4138 23.3503 56.1102 23.4104 55.8166 23.4504C55.523 23.4971 55.2661 23.5205 55.0458 23.5205C54.3252 23.5205 53.6245 23.3937 52.9439 23.1401C52.2699 22.8932 51.6694 22.5362 51.1422 22.0691C50.6217 21.602 50.2047 21.0348 49.8911 20.3676C49.5774 19.7003 49.4206 18.9496 49.4206 18.1155C49.4206 17.2413 49.5708 16.4239 49.871 15.6632C50.1713 14.8958 50.5917 14.2285 51.1322 13.6613C51.6794 13.0941 52.33 12.647 53.084 12.3201C53.8381 11.9931 54.6688 11.8296 55.5763 11.8296ZM55.4562 14.4921C55.1826 14.4921 54.9291 14.5521 54.6955 14.6723C54.4686 14.7857 54.2585 14.9525 54.0649 15.1727C53.8781 15.3863 53.7146 15.6465 53.5745 15.9534C53.4344 16.2537 53.3209 16.5874 53.2342 16.9544C53.9215 16.8343 54.492 16.7075 54.9458 16.574C55.3995 16.4406 55.7632 16.3071 56.0368 16.1737C56.3104 16.0335 56.5039 15.8967 56.6173 15.7633C56.7307 15.6231 56.7875 15.4897 56.7875 15.3629C56.7875 15.2428 56.7408 15.1293 56.6473 15.0226C56.5606 14.9158 56.4505 14.8224 56.317 14.7423C56.1836 14.6622 56.0368 14.6022 55.8766 14.5622C55.7231 14.5154 55.583 14.4921 55.4562 14.4921Z" fill="#D2D2D2"/>
<path d="M0 23.7355L6 17.4046L9.2 20.7766L14.872 14.058L16 15.2466L9.2 23.3056L6 19.9336L1.2 25L0 23.7355ZM1.2 19.942L6 14.8757L9.2 18.2476L16 10.1886L14.872 9L9.2 15.7187L6 12.3467L0 18.6776L1.2 19.942Z" fill="#CF3434"/>
</svg>
